<svg width="39" height="39" viewBox="0 0 39 39" fill="none" xmlns="http://www.w3.org/2000/svg">
<path d="M19.2266 36.4531C16.8594 36.4531 14.6328 36.002 12.5469 35.0996C10.4727 34.209 8.64453 32.9727 7.0625 31.3906C5.48047 29.8086 4.23828 27.9805 3.33594 25.9062C2.44531 23.8203 2 21.5938 2 19.2266C2 16.8594 2.44531 14.6387 3.33594 12.5645C4.23828 10.4785 5.48047 8.64453 7.0625 7.0625C8.64453 5.48047 10.4727 4.24414 12.5469 3.35352C14.6328 2.45117 16.8594 2 19.2266 2C21.5938 2 23.8145 2.45117 25.8887 3.35352C27.9746 4.24414 29.8086 5.48047 31.3906 7.0625C32.9727 8.64453 34.2148 10.4785 35.1172 12.5645C36.0195 14.6387 36.4707 16.8594 36.4707 19.2266C36.4707 21.5938 36.0195 23.8203 35.1172 25.9062C34.2148 27.9805 32.9727 29.8086 31.3906 31.3906C29.8086 32.9727 27.9805 34.209 25.9062 35.0996C23.832 36.002 21.6055 36.4531 19.2266 36.4531ZM28.332 19.1914C28.332 19.0273 28.2559 18.875 28.1035 18.7344L21.3711 12.0195C21.2539 11.8906 21.1016 11.8262 20.9141 11.8262C20.7383 11.8262 20.5977 11.8848 20.4922 12.002C20.3867 12.1074 20.334 12.2422 20.334 12.4062C20.334 12.5703 20.4102 12.7344 20.5625 12.8984L24.0605 16.3965L26.3281 18.6289L23.6738 18.541H10.7539C10.5781 18.541 10.4258 18.6055 10.2969 18.7344C10.168 18.8516 10.1035 19.0156 10.1035 19.2266C10.1035 19.4023 10.1621 19.5547 10.2793 19.6836C10.4082 19.8008 10.5664 19.8594 10.7539 19.8594H23.6738L26.3281 19.7891L24.0605 22.0039L20.5625 25.502C20.4102 25.6543 20.334 25.8184 20.334 25.9941C20.334 26.1699 20.3867 26.3164 20.4922 26.4336C20.5977 26.5391 20.7383 26.5918 20.9141 26.5918C21.0898 26.5918 21.2422 26.5273 21.3711 26.3984L28.1035 19.666C28.2559 19.5254 28.332 19.3672 28.332 19.1914Z" fill="#ACACAC"/>
</svg>
