<svg width="39" height="39" viewBox="0 0 39 39" fill="none" xmlns="http://www.w3.org/2000/svg">
<path d="M2.00781 19.2178C2.00781 16.8506 2.45898 14.624 3.36133 12.5381C4.25195 10.4639 5.48828 8.63574 7.07031 7.05371C8.65234 5.47168 10.4805 4.22949 12.5547 3.32715C14.6406 2.43652 16.8672 1.99121 19.2344 1.99121C21.6016 1.99121 23.8223 2.43652 25.8965 3.32715C27.9824 4.22949 29.8164 5.47168 31.3984 7.05371C32.9805 8.63574 34.2168 10.4639 35.1074 12.5381C36.0098 14.624 36.4609 16.8506 36.4609 19.2178C36.4609 21.585 36.0098 23.8057 35.1074 25.8799C34.2168 27.9658 32.9805 29.7998 31.3984 31.3818C29.8164 32.9639 27.9824 34.2061 25.8965 35.1084C23.8223 36.0107 21.6016 36.4619 19.2344 36.4619C16.8672 36.4619 14.6406 36.0107 12.5547 35.1084C10.4805 34.2061 8.65234 32.9639 7.07031 31.3818C5.48828 29.7998 4.25195 27.9717 3.36133 25.8975C2.45898 23.8232 2.00781 21.5967 2.00781 19.2178ZM19.2695 28.3232C19.4336 28.3232 19.5859 28.2471 19.7266 28.0947L26.4414 21.3623C26.5703 21.2451 26.6348 21.0928 26.6348 20.9053C26.6348 20.7295 26.5762 20.5889 26.459 20.4834C26.3535 20.3779 26.2187 20.3252 26.0547 20.3252C25.8906 20.3252 25.7266 20.4014 25.5625 20.5537L22.0645 24.0518L19.832 26.3193L19.9199 23.665L19.9199 10.7451C19.9199 10.5693 19.8555 10.417 19.7266 10.2881C19.6094 10.1592 19.4453 10.0947 19.2344 10.0947C19.0586 10.0947 18.9062 10.1533 18.7773 10.2705C18.6602 10.3994 18.6016 10.5576 18.6016 10.7451L18.6016 23.665L18.6719 26.3193L16.457 24.0518L12.959 20.5537C12.8066 20.4014 12.6426 20.3252 12.4668 20.3252C12.291 20.3252 12.1445 20.3779 12.0273 20.4834C11.9219 20.5889 11.8691 20.7295 11.8691 20.9053C11.8691 21.0811 11.9336 21.2334 12.0625 21.3623L18.7949 28.0947C18.9355 28.2471 19.0937 28.3232 19.2695 28.3232Z" fill="#ACACAC"/>
</svg>
