<svg width="24" height="24" viewBox="0 0 24 24" fill="none" xmlns="http://www.w3.org/2000/svg">
<path d="M8.73926 17.1357C8.43848 17.1357 8.21061 17.0583 8.05566 16.9033C7.90527 16.7484 7.83008 16.5205 7.83008 16.2197V6.90918C7.83008 6.61296 7.90527 6.38737 8.05566 6.23242C8.21061 6.07747 8.43848 6 8.73926 6H10.2979C10.5941 6 10.8197 6.0752 10.9746 6.22559C11.1296 6.37142 11.207 6.59928 11.207 6.90918V16.2197C11.207 16.5205 11.1296 16.7484 10.9746 16.9033C10.8197 17.0583 10.5941 17.1357 10.2979 17.1357H8.73926ZM13.709 17.1357C13.4082 17.1357 13.1803 17.0583 13.0254 16.9033C12.8704 16.7484 12.793 16.5205 12.793 16.2197V6.90918C12.793 6.61296 12.8704 6.38737 13.0254 6.23242C13.1803 6.07747 13.4082 6 13.709 6H15.2607C15.5615 6 15.7871 6.0752 15.9375 6.22559C16.0924 6.37142 16.1699 6.59928 16.1699 6.90918V16.2197C16.1699 16.5205 16.0924 16.7484 15.9375 16.9033C15.7871 17.0583 15.5615 17.1357 15.2607 17.1357H13.709Z" fill="white"/>
</svg>
