<svg width="24" height="24" viewBox="0 0 24 24" fill="none" xmlns="http://www.w3.org/2000/svg">
<path d="M8.82031 17.5732C8.56966 17.5732 8.36914 17.4821 8.21875 17.2998C8.07292 17.1221 8 16.8851 8 16.5889V6.97754C8 6.68132 8.07292 6.44434 8.21875 6.2666C8.36914 6.08887 8.56966 6 8.82031 6C8.95703 6 9.08691 6.02507 9.20996 6.0752C9.33301 6.12077 9.46289 6.18229 9.59961 6.25977L17.5703 10.874C17.8574 11.0381 18.0557 11.1862 18.165 11.3184C18.279 11.446 18.3359 11.6009 18.3359 11.7832C18.3359 11.9655 18.279 12.1227 18.165 12.2549C18.0557 12.3825 17.8574 12.5306 17.5703 12.6992L9.59961 17.3066C9.46289 17.3887 9.33301 17.4525 9.20996 17.498C9.08691 17.5482 8.95703 17.5732 8.82031 17.5732Z" fill="white"/>
</svg>
