<svg width="39" height="39" viewBox="0 0 39 39" fill="none" xmlns="http://www.w3.org/2000/svg">
<path d="M19.2266 36.4531C16.8594 36.4531 14.6328 36.002 12.5469 35.0996C10.4727 34.209 8.64453 32.9727 7.0625 31.3906C5.48047 29.8086 4.23828 27.9805 3.33594 25.9062C2.44531 23.8203 2 21.5938 2 19.2266C2 16.8594 2.44531 14.6387 3.33594 12.5645C4.23828 10.4785 5.48047 8.64453 7.0625 7.0625C8.64453 5.48047 10.4727 4.24414 12.5469 3.35352C14.6328 2.45117 16.8594 2 19.2266 2C21.5938 2 23.8145 2.45117 25.8887 3.35352C27.9746 4.24414 29.8086 5.48047 31.3906 7.0625C32.9727 8.64453 34.2148 10.4785 35.1172 12.5645C36.0195 14.6387 36.4707 16.8594 36.4707 19.2266C36.4707 21.5938 36.0195 23.8203 35.1172 25.9062C34.2148 27.9805 32.9727 29.8086 31.3906 31.3906C29.8086 32.9727 27.9805 34.209 25.9062 35.0996C23.832 36.002 21.6055 36.4531 19.2266 36.4531ZM13.3027 25.8711C13.5137 25.8711 13.7012 25.7891 13.8652 25.625L19.2441 20.2461L24.623 25.625C24.7988 25.7891 24.9863 25.8711 25.1855 25.8711C25.3848 25.8711 25.5488 25.8066 25.6777 25.6777C25.8184 25.5488 25.8887 25.3906 25.8887 25.2031C25.8887 24.9922 25.8184 24.8105 25.6777 24.6582L20.2285 19.2441L25.6602 13.8301C25.8125 13.666 25.8887 13.4844 25.8887 13.2852C25.8887 13.0977 25.8184 12.9395 25.6777 12.8105C25.5488 12.6816 25.3848 12.6172 25.1855 12.6172C24.9863 12.6172 24.8047 12.6992 24.6406 12.8633L19.2441 18.2422L13.8477 12.8633C13.6836 12.7109 13.502 12.6348 13.3027 12.6348C13.1035 12.6348 12.9336 12.6992 12.793 12.8281C12.6641 12.9453 12.5996 13.0977 12.5996 13.2852C12.5996 13.4844 12.6758 13.666 12.8281 13.8301L18.2598 19.2441L12.8281 24.6582C12.6758 24.8223 12.5996 25.0039 12.5996 25.2031C12.5996 25.3906 12.6641 25.5488 12.793 25.6777C12.9336 25.8066 13.1035 25.8711 13.3027 25.8711Z" fill="#ACACAC"/>
</svg>
